<?xml version="1.0" encoding="UTF-8" standalone="no"?>
<!-- Created with Inkscape (http://www.inkscape.org/) -->

<svg
   version="1.1"
   id="svg1"
   width="234.24001"
   height="272.32001"
   viewBox="0 0 234.24001 272.32001"
   sodipodi:docname="EMPTile.svg"
   xml:space="preserve"
   inkscape:version="1.3 (0e150ed6c4, 2023-07-21)"
   inkscape:export-filename="EMP_Icons.png"
   inkscape:export-xdpi="600"
   inkscape:export-ydpi="600"
   xmlns:inkscape="http://www.inkscape.org/namespaces/inkscape"
   xmlns:sodipodi="http://sodipodi.sourceforge.net/DTD/sodipodi-0.dtd"
   xmlns:xlink="http://www.w3.org/1999/xlink"
   xmlns="http://www.w3.org/2000/svg"
   xmlns:svg="http://www.w3.org/2000/svg"><defs
     id="defs1" /><sodipodi:namedview
     id="namedview1"
     pagecolor="#505050"
     bordercolor="#eeeeee"
     borderopacity="1"
     inkscape:showpageshadow="0"
     inkscape:pageopacity="0"
     inkscape:pagecheckerboard="0"
     inkscape:deskcolor="#505050"
     inkscape:zoom="1.1022577"
     inkscape:cx="-1.3608433"
     inkscape:cy="200.04396"
     inkscape:window-width="1920"
     inkscape:window-height="1027"
     inkscape:window-x="-8"
     inkscape:window-y="-8"
     inkscape:window-maximized="1"
     inkscape:current-layer="g1" /><g
     inkscape:groupmode="layer"
     inkscape:label="Image"
     id="g1"><image
       width="234.24001"
       height="272.32001"
       preserveAspectRatio="none"
       xlink:href="EMP.png"
       id="image1" /><g
       id="g4"
       transform="matrix(0.20499348,-0.1109186,0.1109186,0.20499348,126.41643,93.406432)"><g
         id="g3"
         transform="translate(-157.81089,-12.830153)"><path
           style="fill:#000000;stroke:#ffffff;stroke-width:12.87123849;stroke-dasharray:none;stroke-opacity:1"
           d="m -54.40344,233.98431 c -3.07364,-0.41473 -16.34308,-5.36994 -17.76,-6.63211 -0.44,-0.39194 -1.98292,-1.45109 -3.42871,-2.35366 -3.69025,-2.3037 -11.99662,-9.45277 -16.90538,-14.55 -3.63806,-3.77774 -4.60005,-5.02619 -7.85337,-10.19194 -2.0391,-3.23777 -4.65216,-7.61486 -5.80681,-9.72686 -1.9533,-3.57282 -2.16018,-4.14865 -2.97346,-8.2761 -1.23591,-6.27228 -1.12267,-7.1125 1.79569,-13.3239 1.28172,-2.728 2.4307,-5.032 2.55328,-5.12 0.12258,-0.088 1.28394,-1.11383 2.58081,-2.27963 1.29687,-1.16579 7.93929,-7.04683 14.76092,-13.06897 l 12.40297,-10.94934 5.19703,0.0377 5.19703,0.0378 31.14185,-31.15123 31.1418394,-31.151241 -0.0774,-4.072757 -0.0774,-4.072757 12.5962206,-12.62273 12.59622,-12.622731 7.53937,-0.993621 c 4.146656,-0.546492 7.578338,-1.030381 7.62596,-1.075309 0.04762,-0.04493 1.919622,0.368929 4.16,0.919684 3.559292,0.874986 4.780214,1.370771 9.673415,3.928122 7.708251,4.028591 11.459591,6.804555 15.128985,11.195339 5.296895,6.338245 8.005838,10.277927 10.631515,15.46167 2.196816,4.337064 2.676066,5.606841 3.815923,10.110331 l 1.303577,5.15033 -0.378982,3.48967 c -0.20844,1.919318 -0.396567,5.217669 -0.418061,7.329669 -0.02149,2.112 -0.210953,4.309991 -0.421019,4.884411 -0.246148,0.6731 -4.11276,4.78065 -10.875625,11.55331 l -10.493686,10.5089 -3.954864,1.03611 c -4.743142,1.24262 -6.618308,2.0769 -8.38934,3.73249 -1.169583,1.09335 -45.3451286,50.13147 -48.53806866,53.88084 -0.67630994,0.79417 -2.12311994,2.38323 -3.21514994,3.53124 -1.09203,1.14802 -2.37469,2.86829 -2.85036,3.82283 -0.82251,1.65057 -0.86542,1.97136 -0.87654,6.5527 l -0.0117,4.81717 -6.4682994,7.21923 c -7.75947,8.66029 -12.59051,14.20084 -13.11598,15.04225 -0.21245,0.34019 -0.52669,0.61852 -0.69831,0.61852 -0.17162,0 -0.96498,0.6303 -1.76302,1.40067 -2.14266,2.06834 -11.11971,6.57708 -14.92441,7.49582 -2.76007,0.66648 -6.70814,0.86378 -9.56658,0.47808 z"
           id="path3"
           sodipodi:nodetypes="ssssssssssscccccccccssssssscsssscsssssscsssssss" /><image
           width="336"
           height="336"
           preserveAspectRatio="none"
           xlink:href="../../Resources/EnergyCell.png"
           id="image1-7"
           x="-182.11317"
           y="-31.679619" /></g><path
         style="display:inline;fill:#ffffff;fill-opacity:1;stroke:#ffffff;stroke-width:8.34502;stroke-linecap:round;stroke-linejoin:round;stroke-dasharray:none;stroke-opacity:1"
         d="M 9.4548116,176.5727 C 8.8874802,175.79122 7.9909194,174.16537 7.4624388,172.95973 6.3890348,170.5109 6.44906,170.2676 10.816508,159.36759 c 1.331273,-3.32252 3.376653,-8.78465 4.545293,-12.13809 2.053264,-5.8919 2.095436,-6.2762 1.252648,-11.41581 -0.47968,-2.92528 -1.335735,-6.18468 -1.902345,-7.24317 -0.990464,-1.85026 -1.254048,-1.90384 -6.8341064,-1.38936 -3.1921463,0.29431 -8.20790503,0.88111 -11.146115,1.30402 -10.9796736,1.58028 -43.1656376,5.07982 -47.0115346,5.11149 -5.376235,0.0443 -18.551377,-1.2853 -18.887971,-1.9061 -0.174129,-0.32117 1.760695,-2.9635 4.299614,-5.87188 2.710652,-3.10508 4.616216,-5.98436 4.616216,-6.97504 0,-1.02799 -1.043554,-2.52279 -2.671111,-3.82612 l -2.67111,-2.13904 6.054515,0.47488 c 3.329985,0.26119 13.426778,0.66852 22.437322,0.90518 9.010544,0.23668 20.068937,0.60396 24.574213,0.81618 29.164299,1.37378 28.818791,1.37113 30.145755,0.23194 1.849616,-1.58789 0.975254,-4.69714 -2.639714,-9.38686 -1.629158,-2.1135 -4.877754,-6.583043 -7.2191297,-9.9323 C 5.4175693,92.638264 3.3395993,89.715268 3.1412369,89.491981 2.9428744,89.268703 0.93882006,86.456547 -1.3122187,83.242753 -5.1080611,77.823446 -5.4050123,77.094315 -5.4050123,73.193173 v -4.206324 l 3.6692398,0.401889 c 3.3440877,0.366276 3.9910747,0.79476 7.3010402,4.835338 23.9108933,29.188834 34.9351483,42.906274 35.2336513,43.841064 0.143467,0.44928 -0.07561,1.60292 -0.486842,2.56367 -13.456192,31.43736 -18.855893,43.58236 -20.101057,45.21124 -0.84268,1.10235 -3.160581,4.28786 -5.150912,7.07892 -1.990317,2.79104 -3.833649,5.07463 -4.09629,5.07463 -0.262631,0 -0.941698,-0.63942 -1.5090064,-1.4209 z"
         id="path1" /><path
         style="fill:#ffffff;fill-opacity:1;stroke:#ffffff;stroke-width:1.23126;stroke-linecap:round;stroke-linejoin:round;stroke-dasharray:none;stroke-opacity:1"
         d="m 137.5731,210.93769 c -0.32701,-0.5291 -1.17287,-5.61585 -1.8797,-11.30388 -0.70681,-5.68802 -1.54342,-10.75982 -1.85913,-11.27062 -1.05385,-1.70519 -11.22602,-5.65963 -12.57804,-4.88974 -0.7333,0.41757 -4.85729,3.60711 -9.16442,7.08786 -5.45927,4.41185 -8.34143,6.03655 -9.51588,5.36421 -1.56753,-0.89734 -14.60576,-14.80674 -18.11961,-19.3303 -1.33683,-1.72095 -1.17159,-2.64854 1.14449,-6.425 1.48877,-2.42752 3.69851,-5.46503 4.91051,-6.75002 5.71925,-6.0637 5.94471,-7.07719 3.12173,-14.03256 -1.80704,-4.45225 -3.37946,-6.59874 -5.09995,-6.96186 -1.36806,-0.28874 -5.64148,-1.10755 -9.49649,-1.81958 -12.179209,-2.24957 -11.097709,-0.55072 -11.097709,-17.4326 v -14.97324 l 9.6375,-1.38851 c 11.715759,-1.68794 14.129489,-3.12113 16.379999,-9.725975 2.00501,-5.88441 1.79734,-6.4499 -5.78935,-15.764297 -2.77299,-3.404486 -5.04179,-7.16763 -5.04179,-8.362544 0,-2.258386 15.01517,-19.132963 18.85174,-21.186228 1.79943,-0.963037 3.66255,0.01867 10.46261,5.512862 l 8.27332,6.684541 5.40021,-1.444329 c 2.97012,-0.794382 6.01015,-1.950551 6.75564,-2.569248 0.74549,-0.618703 1.97702,-5.979315 2.73674,-11.912462 0.75972,-5.933159 1.81735,-11.225475 2.35027,-11.760733 0.53293,-0.535245 7.09054,-1.060922 14.57245,-1.16817 10.51126,-0.150679 13.83385,0.17414 14.61695,1.428968 0.55742,0.893182 1.36402,5.624307 1.79244,10.513631 1.10147,12.570116 1.14711,12.652705 8.22444,14.883645 l 6.29039,1.982871 6.64047,-5.156618 c 12.52475,-9.725984 10.08004,-9.917172 21.11495,1.65131 5.36952,5.629149 9.76276,11.190915 9.76276,12.359459 0,1.168556 -2.6284,5.685276 -5.8409,10.037167 -3.2125,4.351881 -5.81925,8.760605 -5.79276,9.797165 0.0265,1.03655 1.20926,4.25021 2.6284,7.14145 l 2.58026,5.256815 11.09773,1.81618 11.09771,1.81618 0.29366,13.95427 c 0.16151,7.67484 -0.15144,14.64225 -0.69544,15.4831 -0.544,0.84086 -5.86599,2.39328 -11.82666,3.44981 l -10.83756,1.92096 -2.19313,5.11636 c -1.20622,2.814 -2.19313,5.73141 -2.19313,6.48316 0,0.75175 2.87576,5.23806 6.39058,9.96958 5.80354,7.81249 6.25875,8.85438 4.95547,11.34179 -1.58391,3.023 -18.05879,20.36253 -19.31732,20.33111 -0.43455,-0.0103 -4.72779,-3.17262 -9.54054,-7.02618 -5.65394,-4.5271 -9.37438,-6.73789 -10.51363,-6.2475 -0.96974,0.41743 -3.56906,1.41593 -5.77623,2.21887 -4.72853,1.72018 -5.32163,3.05124 -6.41937,14.40651 -0.45668,4.72383 -1.11226,9.32354 -1.45687,10.22158 -0.48972,1.27616 -3.77368,1.6328 -15.03492,1.6328 -7.92458,0 -14.67589,-0.43291 -15.00289,-0.96202 z m 29.62053,-52.85539 c 22.82532,-10.35398 28.3893,-43.40257 10.28236,-61.074615 -8.20221,-8.005224 -14.57344,-10.663664 -25.42804,-10.610064 -6.02762,0.0297 -10.14258,0.71066 -13.188,2.18218 -6.88206,3.325334 -15.53096,11.787659 -18.84542,18.438899 -2.57434,5.16602 -3.01036,7.58121 -3.0006,16.62066 0.009,8.69852 0.50393,11.61333 2.78546,16.41721 3.43411,7.23063 12.86697,16.55583 18.93421,18.71805 7.07722,2.52215 22.18385,2.15466 28.46003,-0.69232 z"
         id="path2" /><text
         xml:space="preserve"
         style="font-style:normal;font-variant:normal;font-weight:normal;font-stretch:normal;font-size:256.662px;line-height:1.5;font-family:'Agency FB';-inkscape-font-specification:'Agency FB';text-decoration-color:#000000;letter-spacing:0px;word-spacing:0px;white-space:pre;fill:#ffffff;fill-opacity:1;stroke:#ffffff;stroke-width:13.3678;stroke-linecap:round;stroke-linejoin:round;stroke-dasharray:none;stroke-opacity:1"
         x="-432.61084"
         y="209.04422"
         id="text3"><tspan
           sodipodi:role="line"
           id="tspan3"
           x="-432.61084"
           y="209.04422"
           style="font-style:normal;font-variant:normal;font-weight:normal;font-stretch:normal;font-size:256.662px;font-family:'White Rabbit';-inkscape-font-specification:'White Rabbit';stroke-width:13.3678">4</tspan></text></g></g></svg>
