<?xml version="1.0" encoding="UTF-8" standalone="no"?>
<!-- Created with Inkscape (http://www.inkscape.org/) -->

<svg
   width="184.44577mm"
   height="184.39563mm"
   viewBox="-20 -20 184.44577 184.39563"
   version="1.1"
   id="svg5"
   inkscape:version="1.3 (0e150ed6c4, 2023-07-21)"
   sodipodi:docname="Cog.svg"
   inkscape:export-filename="Gameboard.png"
   inkscape:export-xdpi="600"
   inkscape:export-ydpi="600"
   xml:space="preserve"
   xmlns:inkscape="http://www.inkscape.org/namespaces/inkscape"
   xmlns:sodipodi="http://sodipodi.sourceforge.net/DTD/sodipodi-0.dtd"
   xmlns="http://www.w3.org/2000/svg"
   xmlns:svg="http://www.w3.org/2000/svg"><sodipodi:namedview
     id="namedview7"
     pagecolor="#505050"
     bordercolor="#eeeeee"
     borderopacity="1"
     inkscape:showpageshadow="0"
     inkscape:pageopacity="0"
     inkscape:pagecheckerboard="0"
     inkscape:deskcolor="#505050"
     inkscape:document-units="in"
     showgrid="false"
     inkscape:zoom="0.25"
     inkscape:cx="410"
     inkscape:cy="1122"
     inkscape:window-width="1920"
     inkscape:window-height="1027"
     inkscape:window-x="-8"
     inkscape:window-y="-8"
     inkscape:window-maximized="1"
     inkscape:current-layer="layer11" /><defs
     id="defs2" /><g
     inkscape:groupmode="layer"
     id="layer11"
     inkscape:label="Icons"
     style="display:inline"
     transform="translate(-103.03155,-9.3937036)"><path
       style="display:inline;fill:#000000;fill-opacity:1;stroke-width:0.346131"
       d="m 159.88669,173.23818 c -2.17316,-1.11843 -2.30053,-1.52918 -4.00403,-13.07185 -0.86767,-5.90177 -1.65574,-11.05057 -1.73535,-11.44246 -0.0796,-0.51742 -0.71642,-0.88041 -2.15724,-1.33255 -1.09852,-0.3423 -3.51845,-1.32778 -5.3732,-2.19307 l -3.36721,-1.57375 -8.92827,6.74317 c -4.91151,3.70871 -9.35734,6.85143 -9.88192,6.98278 -2.4279,0.60498 -3.26373,-0.0106 -12.51837,-9.23626 -9.1639,-9.13691 -12.293894,-12.93438 -12.291506,-14.91402 0.0016,-1.45992 0.477616,-2.12381 7.450846,-11.08138 l 6.12147,-7.82418 -1.89455,-4.23568 c -1.0428,-2.32918 -2.14928,-5.02374 -2.4677,-5.98774 l -0.55722,-1.75206 -11.407111,-1.78629 C 90.602612,99.549743 85.171298,98.560277 84.807512,98.333408 83.040325,97.230907 83.024404,97.091601 83.032365,81.36905 c 0.0016,-13.902747 0.02149,-14.713981 0.636824,-15.759965 0.398015,-0.604983 0.971157,-1.265688 1.353251,-1.463899 0.398015,-0.199008 5.787139,-1.148672 12.029608,-2.111072 6.248842,-0.962401 11.372092,-1.783108 11.391992,-1.824502 0.0207,-0.04004 0.47761,-1.242603 1.02688,-2.670681 0.55722,-1.428078 1.57613,-3.878259 2.30052,-5.446438 l 1.30549,-2.850585 -2.11744,-2.860932 c -1.1622,-1.573752 -4.00403,-5.189321 -6.2966,-8.035129 -5.444844,-6.739191 -5.389122,-6.647648 -5.389122,-8.561782 -0.0024,-1.463103 0.159206,-1.886591 2.125402,-4.326424 3.03287,-3.858358 14.88736,-15.5760819 17.8868,-17.6752931 2.98511,-2.0887832 4.03587,-2.3944588 5.74734,-1.6764395 0.71642,0.2865708 4.80006,3.2820324 9.12171,6.6508326 4.32244,3.368799 8.05662,6.273513 8.29304,6.4566 0.31841,0.222889 1.71942,-0.214928 4.49757,-1.412157 2.23684,-0.959217 4.72842,-1.935946 5.53241,-2.169978 1.24977,-0.366174 1.48857,-0.581102 1.6239,-1.498129 0.0796,-0.589063 0.55722,-4.26513 1.05076,-8.168862 0.47762,-3.903732 1.25773,-8.7044309 1.7035,-10.6691926 0.63683,-2.9827251 0.97912,-3.7540783 1.90252,-4.6711051 l 1.09852,-1.0993173 14.6175,-0.09552 c 13.41948,-0.08756 14.71541,-0.04633 15.80518,0.51742 2.22092,1.1470791 2.31645,1.4710634 4.16324,13.7190226 0.93931,6.2567973 1.75922,11.3978784 1.81495,11.4252624 0.0629,0.02738 1.19404,0.421896 2.53137,0.884389 1.33733,0.461698 3.73338,1.435243 5.3334,2.168386 l 2.90551,1.333351 8.91873,-6.736803 c 9.47833,-7.1586999 10.30381,-7.6004967 12.46822,-6.6771017 2.48361,1.0579242 17.86689,16.4665217 20.76365,20.7921497 2.18908,3.266111 1.99803,3.946717 -2.73038,9.879849 -1.45674,1.826093 -4.14732,5.312705 -5.98615,7.748557 l -3.34333,4.42752 1.80699,4.225329 c 0.99504,2.323612 2.11744,5.003845 2.49157,5.955897 l 0.71643,1.73057 10.87775,1.640618 c 5.98615,0.902698 11.39279,1.877039 12.02165,2.166794 0.79603,0.350254 1.36121,1.006979 1.80699,1.994056 0.63682,1.369968 0.63682,2.38411 0.63682,15.140096 0,12.678691 -0.0207,13.777054 -0.63682,15.116215 -0.39801,0.796031 -1.01892,1.677236 -1.4647,1.963011 -0.47761,0.302491 -5.50056,1.247372 -12.21189,2.287782 -6.27272,0.97275 -11.42383,1.80222 -11.44851,1.84441 -0.0215,0.0421 -0.39802,1.0826 -0.84379,2.31246 -0.47762,1.22987 -1.4647,3.66891 -2.27665,5.42097 l -1.48061,3.18412 2.84978,3.79945 c 1.56818,2.08958 4.53738,5.86993 6.60705,8.39971 4.012,4.91549 4.73638,6.28387 4.31449,8.15748 -0.31841,1.55783 -3.89259,5.68286 -11.19617,13.02775 -8.49205,8.54531 -11.5703,10.73081 -14.06267,9.98413 -0.71642,-0.21493 -4.8319,-3.17457 -9.67256,-6.95651 -4.63289,-3.62034 -8.55255,-6.58317 -8.70618,-6.58317 -0.15921,0 -1.64778,0.59703 -3.32741,1.33335 -1.67166,0.73235 -4.09159,1.67804 -5.36524,2.09914 -2.65874,0.87881 -2.26073,-0.11941 -3.23188,8.16297 -0.79603,6.61103 -2.18113,14.36365 -2.85775,15.72581 -0.31841,0.65275 -1.03484,1.51166 -1.56818,1.9049 -0.94728,0.69255 -1.44878,0.71643 -15.40239,0.80638 -13.21808,0.0876 -14.52516,0.04 -15.61334,-0.51742 z m 22.99254,-55.60916 c 11.0282,-2.37376 20.41817,-9.7891 25.46659,-20.112339 4.76026,-9.72924 4.80803,-21.929198 0.0796,-31.651672 -2.006,-4.176771 -4.09956,-7.089445 -7.49065,-10.451877 -7.51452,-7.442882 -17.32957,-11.176741 -27.79339,-10.572952 -9.35813,0.5413 -16.47783,3.610793 -23.18995,10.00196 -5.46873,5.20763 -8.8232,10.654944 -10.61188,17.233894 -0.71643,2.616552 -0.80399,3.690396 -0.79603,9.691668 0.0151,6.334808 0.0637,6.940587 0.9632,9.864724 1.21792,4.030301 2.88163,7.536814 5.08663,10.719664 2.02988,2.94053 7.24387,8.09921 10.02202,9.92291 4.52941,2.97158 10.11913,5.1129 15.21452,5.82615 3.03288,0.42189 10.00053,0.17512 12.9952,-0.46966 z"
       id="path3-3"
       sodipodi:nodetypes="ssssscssssscsscssssssssscsssssssssssssscsssssscssssscsscsssssssssscsssssssssssssssssssssssssss"
       inkscape:label="Cog" /></g></svg>
